# xmcd
#
# Track frame offsets: 
#        150
#        17010
#        29852
#        50317
#        66497
#        79272
#        102915
#        114692
#        124717
#        144000
#        154207
#
# Disc length: 2252 seconds
#
# Revision: 0
# Processed by: cddbd v1.5.2PL0 Copyright (c) Steve Scherf et al.
# Submitted via: ExactAudioCopy v0.99pb5
#
DISCID=9508ca0b
DTITLE=Armstrong Louis - The early years
DYEAR=1990
DGENRE=Blues
TTITLE0=Swing the music
TTITLE1=Dear Old southland
TTITLE2=TIger rag
TTITLE3=Someday (You'll be sorry)
TTITLE4=Heebie jeebies
TTITLE5=Storyville blue
TTITLE6=Brother Bill
TTITLE7=Way down Yonder in New Orleans
TTITLE8=Chinatown my China town
TTITLE9=Muskrat ramble
TTITLE10=When the saints go marghing in
EXTD=
EXTT0=
EXTT1=
EXTT2=
EXTT3=
EXTT4=
EXTT5=
EXTT6=
EXTT7=
EXTT8=
EXTT9=
EXTT10=
PLAYORDER=
